<?xml version="1.0" encoding="UTF-8"?>
<svg xmlns="http://www.w3.org/2000/svg" viewBox="0 0 734.37 862.05">
  <defs>
    <style>
      .cls-1 {
        fill: #ffcf4a;
      }

      .cls-2 {
        isolation: isolate;
      }

      .cls-3 {
        fill: #f469bc;
      }

      .cls-4 {
        mix-blend-mode: multiply;
      }
    </style>
  </defs>
  <g class="cls-2">
    <g id="Layer_2">
      <g id="Layer_1-2" data-name="Layer_1">
        <g>
          <g class="cls-2">
            <path class="cls-3" d="M478.24,192.63c84.14,55.46,149.09,139.47,181.57,234.87,8.77,25.76,15.29,53.3,10.38,80.07-8.62,47.02-50.47,82.56-59.67,129.47-3.9,19.89-1.6,40.5-4.19,60.61-2.36,18.37-8.73,37.29-3.01,54.9,4.12,12.69,13.94,22.57,23.44,31.95,11.62,11.47,23.42,23.08,37.62,31.16s31.3,12.36,47.05,8.06l-.31,3.26c-45.06,36.56-108.64,36.36-166.63,34.4-54.24-1.84-109.33-3.82-160.89-20.74l-3.15-3.71c-41.69-10.65-71.24-56.07-64.08-98.5,2.56-15.14,9.06-29.3,15.72-43.14,15.83-32.89,32.91-65.21,52.29-96.14,11.38-18.16,23.71-36.2,29.61-56.8,4.46-15.57,5.04-31.95,5.33-48.14.43-23.83.17-48.28-8.28-70.56-9.08-23.96-26.93-43.49-45.66-60.97-29.39-27.42-62-51.38-96.95-71.23"/>
          </g>
          <g class="cls-4">
            <path class="cls-1" d="M501.18,182.71c84.14,55.46,149.09,139.47,181.57,234.87,8.77,25.76,15.29,53.3,10.38,80.07-8.62,47.02-50.47,82.56-59.67,129.47-3.9,19.89-1.6,40.5-4.19,60.61-2.36,18.37-8.73,37.29-3.01,54.9,4.12,12.69,13.94,22.57,23.44,31.95,11.62,11.47,23.42,23.08,37.62,31.16,14.19,8.08,31.3,12.36,47.05,8.06l-.31,3.26c-45.06,36.56-108.64,36.36-166.63,34.4-54.24-1.84-109.33-3.82-160.89-20.74l-3.15-3.71c-41.69-10.65-71.24-56.07-64.08-98.5,2.56-15.14,9.06-29.3,15.72-43.14,15.83-32.89,32.91-65.21,52.29-96.14,11.38-18.16,23.71-36.2,29.61-56.8,4.46-15.57,5.04-31.95,5.33-48.14.43-23.83.17-48.28-8.28-70.56-9.08-23.96-26.93-43.49-45.66-60.97-29.39-27.42-62-51.38-96.95-71.23"/>
          </g>
          <g class="cls-4">
            <path d="M271.93,285.58c3.79-1.94,9.57-3.52,13.47-1.1s5.15,7.84,6.16,12.14c.74,3.13,5.56,1.81,4.82-1.33-1.36-5.78-3.24-12.15-8.76-15.3s-12.89-1.43-18.21,1.29c-1.2.61-1.55,2.3-.9,3.42.71,1.22,2.21,1.51,3.42.9h0Z"/>
          </g>
          <g class="cls-4">
            <path d="M293.75,272.48c2.98-2.88,7.5-3.15,10.75-.66,3.53,2.71,3.19,7.89,5.86,11.41.81,1.07,2.16,1.64,3.42.9,1.06-.62,1.72-2.34.9-3.42-1.58-2.08-1.9-4.68-2.87-7.07-1.12-2.77-2.98-5.08-5.55-6.64-5.12-3.12-11.79-2.18-16.05,1.95-2.32,2.24,1.22,5.77,3.54,3.54h0Z"/>
          </g>
          <g class="cls-4">
            <path d="M314.84,265.25c.31-.1.62-.18.94-.25.08-.02.36-.12.43-.08-.35.04-.42.05-.23.03.09-.01.17-.02.26-.03.65-.06,1.28-.03,1.93.02.48.04-.36-.08-.05,0,.14.03.29.05.43.08.32.06.63.14.94.24s.62.2.92.32c.44.16-.3-.15-.03-.01.16.08.32.15.48.23.55.28,1.07.62,1.58.97s-.4-.35.05.04c.11.1.22.19.33.29.24.22.47.44.69.68.1.11.19.22.29.33.22.25.2.16,0-.03.24.22.42.6.59.87.15.25.29.51.42.77.04.08.08.16.11.24.08.17.05.11-.08-.19.1.09.14.38.18.5.42,1.24,1.74,2.18,3.08,1.75,1.23-.4,2.19-1.75,1.75-3.08-2.19-6.52-9.68-10.59-16.32-8.52-1.25.39-2.17,1.76-1.75,3.08s1.74,2.16,3.08,1.75h0Z"/>
          </g>
          <g class="cls-4">
            <path d="M329.34,253.77c.97-.25,1.94-.48,2.93-.66.25-.04.5-.09.75-.12.81-.13-.48.04.34-.04.5-.05,1-.09,1.5-.11s.98,0,1.47.02c.24.02.48.04.72.07-.52-.07.24.06.28.06.46.1.91.23,1.36.38.66.22-.35-.22.26.12.21.11.42.22.62.34.58.35,1.3,1.02,1.67,1.61.55.9,1.04,1.85,1.33,2.6.36.95.71,1.94.86,2.95.09.59,0,1.3-.38,1.88-.74,1.13-.23,2.76.9,3.42,1.22.71,2.68.24,3.42-.9,1.67-2.55,1.12-5.74.11-8.42s-2.37-5.3-4.8-7.05c-4.22-3.05-9.97-2.19-14.66-.96-1.31.34-2.1,1.78-1.75,3.08s1.76,2.09,3.08,1.75h0Z"/>
          </g>
          <g class="cls-4">
            <path d="M349.32,246.43c.78.24,1.55.5,2.31.78.19.07.39.15.58.22.64.25-.46-.21.16.07.37.17.75.34,1.11.53s.71.38,1.05.6c.17.11.33.21.5.33.06.04.5.37.22.15s.22.19.27.24c.14.13.28.26.42.4.13.13.24.31.39.42.12.14.08.09-.1-.14.06.08.11.15.16.23.19.29.36.59.52.9.26.48-.09-.38.04.12.05.2.12.39.17.59.05.22.09.44.12.65-.08-.57,0,.17,0,.23.03.45.04.91.05,1.36.05,2.02.18,4.16,1.41,5.85.77,1.06,2.21,1.68,3.42.9,1.05-.67,1.72-2.29.9-3.42-.15-.21-.26-.43-.4-.64-.08-.16-.07-.13.04.11-.04-.1-.07-.2-.1-.3-.07-.24-.12-.48-.17-.73-.12-.53,0,.4-.02-.2-.04-.9-.06-1.81-.11-2.71-.12-2.18-.69-4.13-2.03-5.87-2.31-2.99-6.1-4.4-9.59-5.49-1.25-.39-2.78.46-3.08,1.75-.31,1.36.41,2.66,1.75,3.08h0Z"/>
          </g>
          <g class="cls-4">
            <path d="M378.42,238.73c-16.22,7.37-32.43,14.74-48.65,22.11s-32.28,14.67-48.42,22-32.28,14.67-48.42,22-32.43,14.74-48.65,22.11-32.28,14.67-48.42,22c-2.05.93-4.09,1.86-6.14,2.79-1.23.56-1.53,2.34-.9,3.42.74,1.26,2.19,1.46,3.42.9,16.22-7.37,32.43-14.74,48.65-22.11s32.28-14.67,48.42-22c16.14-7.33,32.28-14.67,48.42-22,16.22-7.37,32.43-14.74,48.65-22.11s32.28-14.67,48.42-22c2.05-.93,4.09-1.86,6.14-2.79,1.23-.56,1.53-2.34.9-3.42-.74-1.26-2.19-1.46-3.42-.9h0Z"/>
          </g>
          <g class="cls-4">
            <path d="M129.64,348.36c-5.71,1.3-10.07,7.9-8.2,13.66.52,1.6,1.48,3.12,2.97,3.98,1.83,1.06,3.77.63,5.71.22,2.88-.61,5.88-1.08,8.18-3.07,1.16-1.01,1.9-2.5,1.91-4.04.01-1.91-1.07-3.5-2.3-4.86-2.13-2.36-4.99-4.11-8.03-5.03-1.65-.5-3.46-.75-5.09-.07-1.75.73-2.85,2.34-2.91,4.24-.12,3.68,3.31,6.13,6.75,5.96,3.08-.16,7.36-1.56,8.07-5.01.78-3.76-3.13-6.48-6.56-5.83s-5.22,3.68-7.12,6.1c-1.17,1.5-2.47,2.98-2.57,4.98s1.08,3.69,2.77,4.53c3.15,1.57,7.21-.03,10-1.75,2.94-1.82,5.03-4.6,5.43-8.08.37-3.19-1.37-6.23-4.12-7.8s-6.01-1.67-8.88-.5c-1.56.64-2.93,1.52-4.2,2.63s-2.55,2.39-3.05,3.95c-1.12,3.52,2.57,6.67,5.45,7.91,3.11,1.34,6.46,1.33,9.54-.08,2.75-1.26,5.09-3.79,6.01-6.68.61-1.91.07-3.75-1.55-4.93-1.09-.8-2.79-.18-3.42.9-.74,1.27-.2,2.62.9,3.42l-.67-.88c-.02-.33-.02-.35-.01-.04l.04-.22c-.03.15-.06.29-.11.43-.14.58.2-.3-.12.29-.12.22-.23.44-.36.65-.44.72-.85,1.23-1.73,1.91.36-.28-.3.19-.3.19-.17.11-.35.22-.53.32s-.37.19-.55.28c.43-.2-.31.11-.32.12-.47.16-.96.29-1.45.35.5-.06-.34,0-.35,0-.25,0-.51,0-.77,0-.02,0-.84-.11-.35-.03-.25-.04-.5-.1-.75-.16s-.49-.15-.73-.22c-.72-.21.32.19-.35-.13-1.04-.5-1.49-.82-2.18-1.53,0,0-.53-.62-.27-.28-.1-.13-.2-.29-.28-.44l.04.13c-.1-.43-.12-.32-.07.32l-.07.1c.08-.16.18-.32.29-.46-.22.3.33-.36.3-.32.18-.2.36-.39.55-.58.37-.38.77-.74,1.18-1.07-.32.25.37-.26.35-.24.22-.15.44-.29.67-.42s.46-.25.69-.37c.43-.23.23-.11.12-.07.48-.2.99-.32,1.5-.45.72-.19-.32-.02.34-.06.31-.02.61-.03.92-.01.15,0,.31.02.46.04-.57-.07.18.06.25.07.23.05.44.13.67.19.66.18-.35-.22.25.1.2.11.4.21.6.33-.02-.01.58.41.3.19s.28.26.26.24c.08.08.61.76.34.34.13.19.23.38.35.58.31.52-.04-.4.1.27-.01-.06.18.75.12.42s.03.48.03.43c0,.25,0,.52-.03.77.07-.49-.1.34-.1.35-.18.68-.17.64-.5,1.2-.11.19-.23.37-.35.55-.4.59.26-.2-.26.31-.19.19-.37.39-.56.57.03-.03-.63.54-.31.29-.35.28-.73.52-1.12.74-.23.14-.47.27-.71.39-.09.05-.87.42-.63.31-.79.35-2.01.78-2.66.87.07,0-.86.02-.53.05-.05,0-.78-.08-.31-.05l-.21-.12c.18.16.16.15-.05-.05.11.18.13.2.04.05-.09-.15-.08-.13.02.07.14-.06-.26.81.04.02-.13.34.26-.45.23-.42.3-.49.52-.74.85-1.16.73-.93,1.44-1.88,2.19-2.79.31-.38.64-.74.99-1.08.45-.44.37-.32.83-.65s-.22,0,.34-.17c.18-.05.75-.05.22-.07.16,0,.71.15.19,0,.13.04.68.28.21.04.11.06.6.44.19.07.18.17.3.52.13.11.21.5-.04-.27-.05-.33.07.41.05-.02.12-.21-.03.09-.25.39.02.04-.04.05-.58.49-.19.21-.2.14-.41.24-.62.36-.27.13-.29.14-.06.04-.15.06-.29.11-.44.16-1.04.35-1.71.55-2.72.47.39.03-.45-.11-.43-.1-.63-.19.09.09-.36-.18.43.26.05.1.02,0-.19-.21-.19-.2-.01.02-.08-.12-.15-.24-.22-.36.27.46,0-.06-.04-.19-.21-.65.23.47,0-.14l-.04.27c.08-.27.06-.25-.06.05.4-.28-.04.02-.05.02-.53.28.39-.22-.07.03l.24-.06c-.24.03-.21.04.1.02,0,0,.84.1.39.02.35.06.7.16,1.04.26,1.68.49,3.52,1.5,4.79,2.63.41.36.79.75,1.16,1.15.15.17.3.34.44.52.27.35-.2-.42.17.26,0-.02.35.76.2.38.31.77-.24-.33.02.27l.04-.27c-.03.13-.06.25-.1.37.22-.73-.26.28-.03-.02s-.2.18-.2.19c-.21.18-.2.18.03,0-.12.08-.23.16-.36.24-.19.12-.38.22-.58.32-.13.07-.27.13-.41.19.25-.1.24-.1-.04,0-1.05.36-2.11.59-3.2.82-.63.13-1.26.27-1.89.4-.31.07-.63.14-.94.2.03,0-.9.12-.47.06l-.22-.06c.25.11.25.1,0-.04.22.39-.08-.08-.18-.19.33.34-.12-.18-.16-.25-.08-.14-.15-.28-.22-.42.1.23.09.2-.01-.07-.06-.23-.12-.46-.18-.69-.05-.3-.05-.31,0-.03-.01-.16-.02-.31-.03-.47,0-.16,0-.31,0-.47,0-.11.13-1.02.03-.49.11-.54.25-1.06.43-1.57-.15.42.02-.05.07-.15.12-.25.25-.49.39-.72.47-.79.83-1.24,1.76-1.95-.4.31.22-.13.25-.15.26-.17.54-.31.81-.45.62-.32-.41.09.26-.1.3-.09.6-.18.9-.25,1.32-.3,2.09-1.82,1.75-3.08-.37-1.35-1.75-2.05-3.08-1.75h0Z"/>
          </g>
          <g class="cls-4">
            <path d="M369.99,240.78c.03-.05.24-.33.22-.39-.25.31-.29.36-.11.16l.1-.1c.3-.37-.43.25-.05.02.13-.08.26-.15.38-.23.42-.26-.49.13-.04.02.15-.04.3-.08.44-.12.49-.15-.54.01-.06,0,.15,0,.31-.02.46-.02.64.01-.06-.02-.06-.04,0-.02.47.09.54.11.18.05.35.11.53.16.53.15-.37-.2.08.03.7.36,1.35.76,1.98,1.23.08.06.15.11.22.17-.23-.18-.28-.22-.14-.11.14.11.28.22.41.33.27.23.54.46.8.71.13.12.25.25.37.38.06.06.12.13.17.2-.19-.26-.23-.31-.12-.16.1.15.2.29.29.44.04.07.34.6.15.24s.06.22.09.32c.03.1.05.2.07.3-.03-.3-.04-.35-.02-.17,0,.41,0,.8-.02,1.22-.02.19-.01.14.02-.15-.02.1-.04.2-.06.31-.04.2-.09.41-.14.61-.11.44-.23.87-.36,1.3-.37,1.25.45,2.78,1.75,3.08s2.68-.4,3.08-1.75c.71-2.43,1.14-4.9.04-7.29-.86-1.88-2.59-3.22-4.22-4.41s-3.68-2.16-5.75-2.06-4.35,1.13-5.36,3.12c-.59,1.17-.35,2.76.9,3.42,1.14.6,2.79.35,3.42-.9h0Z"/>
          </g>
          <g class="cls-4">
            <path d="M383.89,234.23c.69-.07,1.38-.09,2.07-.03.09,0,.68.12.29.03s.11.03.2.04c.35.07.7.15,1.05.25s.68.22,1.02.35c.44.16-.29-.14-.02,0,.16.08.33.15.49.23.62.31,1.2.68,1.77,1.08.42.29-.35-.31.07.05.11.1.23.19.35.29.25.22.49.45.72.68.25.26.49.53.72.81.39.47-.3-.44.05.07.1.15.21.29.31.44.35.53.74,1.13.94,1.74-.21-.63-.03-.04.01.07.06.17.12.34.17.51.1.35.19.7.26,1.05.25,1.29,1.86,2.14,3.08,1.75,1.37-.44,2.02-1.7,1.75-3.08-1.34-6.79-8.38-12.06-15.29-11.33-1.3.14-2.56,1.05-2.5,2.5.06,1.24,1.11,2.65,2.5,2.5h0Z"/>
          </g>
          <g class="cls-4">
            <path d="M398.43,224.88c.67.91,1.47,1.65,2.5,2.13.88.41,1.81.71,2.71,1.08l-.6-.25c.28.12.56.25.83.4.13.08.25.17.38.24-.36-.28-.44-.34-.24-.18.06.05.11.1.17.15.11.1.2.21.31.32.28.3-.39-.57-.06-.06.17.25.3.51.42.78l-.25-.6c.17.42.29.84.35,1.29l-.09-.66c.05.41.05.81,0,1.22l.09-.66c-.05.37-.15.72-.29,1.07l.25-.6-.04.1c-.28.64-.45,1.22-.25,1.93.16.58.61,1.21,1.15,1.49.58.31,1.28.46,1.93.25.58-.19,1.24-.57,1.49-1.15.49-1.13.81-2.3.69-3.55s-.44-2.41-1.13-3.45-1.56-1.87-2.65-2.42c-.96-.48-1.99-.79-2.97-1.2l.6.25c-.33-.14-.64-.3-.95-.49-.08-.05-.31-.23.03.04s.08.06,0-.01c-.18-.16-.54-.67-.05,0-.4-.54-.82-.96-1.49-1.15-.6-.16-1.4-.09-1.93.25-1.04.67-1.72,2.29-.9,3.42h0Z"/>
          </g>
          <g class="cls-4">
            <path d="M414.16,220.19c.67-.4.85-.49,1.71-.69.06-.01.62-.12.24-.07.17-.03.35-.04.53-.05.36-.02.71-.03,1.07-.01.23,0,.45.02.67.04.05,0,.5.06.34.03s.3.05.35.06c.18.03.36.07.54.11.81.18,1.61.41,2.4.68,1.36.47,2.57.9,3.68,1.72.47.35.82.79,1.11,1.23.06.09.19.35.08.1.07.16.11.32.16.48.2.66.03-.17.04.21,0,.21,0,.42-.02.64-.12,1.31,1.23,2.56,2.5,2.5,1.45-.07,2.38-1.1,2.5-2.5.19-2.18-.88-4.4-2.46-5.87s-3.68-2.39-5.74-3.14c-3.92-1.43-8.48-2.03-12.22.21-1.16.69-1.58,2.25-.9,3.42s2.26,1.59,3.42.9h0Z"/>
          </g>
          <g class="cls-4">
            <path d="M431.1,217.81c25.59-9.68,47.27-26.58,69.33-42.33,23.56-16.81,48.51-31.42,74.05-44.99,14.4-7.65,28.95-15,43.5-22.36,2.87-1.45.34-5.77-2.52-4.32-25.87,13.07-51.77,26.16-76.75,40.89-12.46,7.34-24.67,15.1-36.51,23.42-11.01,7.73-21.75,15.84-32.89,23.38-12.43,8.41-25.45,16.16-39.53,21.49-1.26.48-2.13,1.69-1.75,3.08.33,1.21,1.81,2.23,3.08,1.75h0Z"/>
          </g>
          <g class="cls-4">
            <path d="M619.05,99.49c-1.93.4-3.79,1.24-5.36,2.42-1.87,1.41-4.16,3.46-3.37,6.07.61,2.01,2.78,3.41,4.62,4.15,1.72.69,3.6.77,5.41.44,2.01-.37,3.94-1.57,5.11-3.26,1.44-2.08,1.11-4.64.08-6.81-.84-1.76-2.17-3.44-3.55-4.82-1.63-1.64-3.83-2.87-6.21-2.77s-4.39,1.46-5.34,3.58-.83,4.37.15,6.45c.88,1.86,2.69,3.89,4.72,4.5,1.12.33,2.31.24,3.38-.18,1.23-.48,2.73-1.24,3.44-2.41,1.46-2.42-1.04-5-3.09-6.03s-5.55-1.68-7.07.74c-.69,1.11-.76,2.48-.09,3.61.92,1.56,2.76,1.66,4.34,1.31,2.22-.49,5.22-2.14,5.3-4.7.1-3.13-3.41-4.26-5.96-4.27-2.41,0-4.85.91-6.61,2.58-1.96,1.86-2.88,4.75-1.72,7.28,1.03,2.25,3.77,3.77,6.2,2.91,1.23-.43,2.18-1.73,1.75-3.08-.39-1.22-1.75-2.21-3.08-1.75-.12.05-.24.08-.36.11.36-.04.39-.06.11-.05.36.06.4.05.12-.01l.25.11c-.12-.05-.23-.12-.33-.19.24.2.26.22.05.03-.07-.07-.14-.14-.2-.21-.12-.14-.09-.1.09.12-.07-.11-.13-.22-.19-.34.12.3.14.31.05.05.15.53.02.07.01-.15.02-.3.02-.29,0,.02.03-.14.07-.28.12-.41-.12.4,0-.02.11-.19.07-.13.15-.25.24-.37-.17.21-.16.2.02-.02.16-.16.32-.32.48-.47.22-.19.23-.19.02-.02.12-.09.25-.17.38-.25.2-.12.41-.23.62-.33-.44.21.28-.09.38-.13.26-.08.53-.14.79-.2.3-.05.31-.05.03,0,.12-.01.23-.02.35-.02.27-.01.54,0,.81,0,.57,0-.25-.09.26.03.29.07.58.13.86.23-.3-.13-.33-.13-.08,0l-.2-.16c-.13-.16-.22-.33-.27-.52-.12-.5-.05-.94.2-1.32-.19.17-.23.2-.11.11.12-.1.08-.07-.14.09-.28.17-.56.34-.85.47.41-.18-.29.09-.32.09-.16.05-.31.09-.47.12-.32.06-.32.06,0,.02-.58-.03-.36.26.66.89.86.38,1.08.93.65,1.65-.17.29-.4.49-.7.61-.3.03-.3.04,0,.03h.22c-.31-.03-.31-.03-.02.02.28.08.56.14.83.24-.41-.14.03.02.19.11.07.04.69.44.47.28s.34.31.4.37c.1.1.2.21.29.32-.21-.21-.32-.48-.32-.8l.34-1.26c.05-.11.71-.49.17-.18-.14.08-.28.18-.42.26-.18.11-.36.21-.54.3-.42.21.51-.25-.19.07-.53.24.15.06-.14.04h-.12c.27.05.26.04-.01-.03.31-.08.18.19,0-.03-.24-.16-.24-.16-.03,0-.09-.07-.17-.14-.25-.22-.26-.23-.49-.49-.73-.74-.48-.51.2.37-.17-.22-.08-.13-.17-.26-.25-.39-.12-.2-.23-.4-.32-.61.05.11.13.4,0-.04-.05-.18-.08-.38-.15-.55-.03-.18-.03-.15,0,.1-.01-.13-.02-.27-.02-.4,0-.14.01-.27.02-.4-.01.6,0,.02.05-.13.03-.13.08-.26.12-.39-.15.49-.04.1.04-.04s.17-.29.27-.42c-.3.41-.09.14,0,.05.41-.42-.42.16.11-.1.12-.06.61-.22.19-.11,0,0,.7-.11.35-.09-.37.02.39.02.36.02-.38.02-.12-.03.03,0,.23.06.46.12.68.19-.1-.03-.38-.2.06.03.18.09.35.19.52.3.08.05.5.36.19.12.19.15.37.32.55.49.6.57,1.13,1.22,1.63,1.87-.24-.31,0,.01.05.06.14.2.28.39.42.59.25.37.48.75.69,1.14.05.1.27.57.1.16.06.14.11.29.16.44.07.22.13.44.16.66-.02-.13,0-.45-.02,0v.22c-.02.3-.02.29,0-.01,0,0-.16.54.03.04,0-.02-.34.62-.15.32.11-.13.08-.1-.09.1-.1.11-.21.22-.32.32-.07.07-.37.25-.03.03-.14.09-.27.18-.41.26s-.28.15-.42.23c-.5.27.3-.02-.02,0-.27.02-.56.18-.83.24-.14.03-.75.07-.1.03-.19.01-.38.03-.58.03-.32,0-.64-.02-.97-.05.66.05-.29-.08-.48-.13-.12-.03-.25-.07-.37-.11-.03,0-.59-.26-.24-.08s-.21-.11-.22-.12c-.17-.09-.34-.19-.5-.29-.11-.07-.55-.47-.11-.07-.14-.13-.29-.25-.42-.39-.09-.09-.18-.19-.26-.28.18.25.19.25.02.01.14.24.15.51.02.79l-.07.57c.15-.24.14-.24-.03,0,.14-.18.3-.35.45-.52.31-.34.65-.64,1-.95s.12-.1.04-.03c.22-.16.44-.31.66-.45.36-.23.72-.43,1.1-.62.05-.02.74-.32.24-.12.21-.08.43-.16.65-.24.44-.14.88-.26,1.33-.35,1.28-.27,2.14-1.85,1.75-3.08-.44-1.36-1.7-2.03-3.08-1.75h0Z"/>
          </g>
          <g class="cls-4">
            <path d="M440.45,208.52c.21-.34-.06-.03.13-.16.31-.21-.28.1.07-.04.14-.08.14-.08,0-.01l.26-.07c.1-.02.4-.04.14-.02.46-.03.91,0,1.37.04.19.02.39.04.58.06l.29.03c-.14-.02-.12-.02.05,0,1.77.25,3.52.7,5.2,1.29.83.29,1.36.51,2.08.86.15.08.31.15.46.23.63.32.02.06.08-.03-.06-.1-.06-.1.01.02.09.16.08.12-.04-.12.03.14.07.27.1.41-.11-.51-.03-.04-.02.1,0,.19,0,.38,0,.57,0,.34-.01.68,0,1.02.06,1.01.26,1.93.76,2.82.64,1.14,2.3,1.62,3.42.9s1.59-2.2.9-3.42c-.27-.48,0,.35-.07-.2-.1-.68-.02.5-.01-.21,0-.42,0-.83,0-1.25,0-1.07-.16-2.21-.73-3.14-1.24-2.03-4.03-2.86-6.17-3.57s-4.37-1.13-6.62-1.36c-2.62-.26-5.11.36-6.58,2.71-.7,1.11-.27,2.8.9,3.42,1.23.65,2.68.29,3.42-.9h0Z"/>
          </g>
          <g class="cls-4">
            <path d="M458.62,198.69c3.5-1.68,7.64-2.04,11.45-1.4,2.65.44,7.24,1.28,8.16,4.23s5.78,1.76,4.82-1.33c-1.51-4.85-6.68-6.83-11.26-7.66-5.35-.97-10.76-.52-15.69,1.84-1.22.58-1.54,2.32-.9,3.42.73,1.25,2.2,1.48,3.42.9h0Z"/>
          </g>
          <g class="cls-4">
            <path d="M476.62,186.82c3.87-1.49,7.96-2.1,12.09-1.62,2.03.24,4.05.77,6,1.39,1.27.4,2.82.87,3.57,2.05,1.72,2.71,6.05.21,4.32-2.52-2.48-3.91-8.05-5.09-12.32-5.71-5.06-.73-10.2-.24-14.98,1.6-1.26.49-2.13,1.68-1.75,3.08.33,1.2,1.81,2.23,3.08,1.75h0Z"/>
          </g>
          <g class="cls-4">
            <path d="M371.63,645.92c-13.31,17.82-24.46,37.54-30.96,58.89-6.08,19.99-7.71,41.2-3.16,61.68,4.19,18.87,13.58,36.98,28.07,49.98,16.29,14.61,37.71,21.24,58.99,24.32,24.04,3.47,48.54,2.68,72.47,7,2.99.54,5.97,1.16,8.93,1.87,3.13.75,4.46-4.07,1.33-4.82-23.79-5.71-48.38-5.28-72.58-7.8-21.02-2.19-42.66-6.94-60.04-19.59-15.09-10.98-25.35-27.64-30.57-45.37-5.62-19.11-5.4-39.27-.66-58.53,5.19-21.12,15.32-40.72,27.7-58.48,1.56-2.23,3.16-4.44,4.78-6.62.81-1.08.18-2.79-.9-3.42-1.28-.75-2.61-.19-3.42.9h0Z"/>
          </g>
          <g class="cls-4">
            <path d="M632.35,396.6c.7.64,1.37,1.31,2,2.02.32.36.64.74.94,1.12.05.06.28.36.05.07-.25-.31.05.07.1.14.14.2.29.39.43.59.54.78,1.04,1.58,1.5,2.41.22.4.43.81.63,1.23.11.22.21.44.31.66.06.12.11.25.16.37.13.3-.24-.59-.03-.07.39.95,1,1.65,2.08,1.79.95.13,2.02-.31,2.49-1.19,1.91-3.55,2.38-7.85,1.08-11.69-.42-1.24-1.74-2.18-3.08-1.75-1.23.4-2.19,1.75-1.75,3.08.14.41.26.83.36,1.25.04.16.07.32.1.48.02.11.04.21.05.32-.05-.4-.06-.46-.02-.18.07.79.1,1.57.04,2.35-.01.15-.1.43-.06.57.05-.4.06-.46.02-.18-.02.11-.04.21-.06.32-.07.37-.16.74-.27,1.11s-.24.72-.37,1.08c-.1.25-.08.2.06-.15-.04.1-.09.2-.14.3-.09.2-.19.39-.3.58l4.57.6c-1.66-4.07-4.11-7.76-7.37-10.73-.97-.88-2.59-1.03-3.54,0-.88.96-1.03,2.6,0,3.54h0Z"/>
          </g>
          <g class="cls-4">
            <path d="M618,396.41c1.49,2.05,2.99,4.1,4.48,6.15l2.08,2.85c.86,1.18,1.71,2.38,3.2,2.79,2.77.76,4.98-1.53,6.11-3.77s1.96-4.54,2.5-6.95c.29-1.27-.39-2.77-1.75-3.08-1.27-.29-2.77.38-3.08,1.75-.21.94-.46,1.86-.77,2.77-.15.44-.3.87-.47,1.3-.02.05-.29.71-.13.33-.1.23-.2.46-.31.69-.2.44-.41.88-.65,1.3-.09.15-.2.3-.28.45-.1.14-.08.12.07-.07-.07.08-.14.16-.21.24-.12.13-.24.25-.38.36.24-.18.24-.2,0-.06l.25-.1c-.48.06.35,0,.41.03.13.04.6.43.24.1-.38-.35.19.3-.14-.15-.13-.18-.27-.37-.4-.55l-.88-1.21-1.92-2.63c-1.23-1.68-2.45-3.37-3.68-5.05-.77-1.05-2.21-1.68-3.42-.9-1.04.67-1.72,2.29-.9,3.42h0Z"/>
          </g>
          <g class="cls-4">
            <path d="M607.32,400.89c.97.42,1.9.91,2.8,1.47.45.28.87.59,1.3.9.29.2-.34-.27-.06-.05.1.08.19.15.29.23.22.18.43.36.64.54.76.68,1.48,1.42,2.13,2.21.05.06.29.3.29.36,0-.09-.27-.36-.05-.06.15.2.29.4.43.6.32.46.61.93.89,1.42.96,1.66,3.34,1.58,4.32,0,1.59-2.57,2.44-5.51,2.57-8.52.06-1.31-1.19-2.56-2.5-2.5-1.4.06-2.44,1.1-2.5,2.5-.01.31-.03.62-.07.93,0,.06-.07.51-.02.18s-.02.12-.03.18c-.11.61-.25,1.22-.44,1.82-.08.26-.17.53-.27.79-.06.16-.12.32-.19.48.08-.21.12-.26,0-.03-.27.56-.56,1.11-.89,1.64h4.32c-2.38-4.11-6.09-7.52-10.46-9.42-1.2-.52-2.74-.39-3.42.9-.57,1.08-.38,2.86.9,3.42h0Z"/>
          </g>
          <g class="cls-4">
            <path d="M602.58,406.61c1.51,1.92,2.28,4.34,2.34,6.76l3.76-2.16c-5.87-2.62-12.21-4.04-18.66-3.9-1.53.03-3.41-.06-4.66.97-1.36,1.12-1.51,2.84-1.37,4.49.12,1.34.36,2.55.15,3.83-.01.06-.1.37-.1.34s-.23-.03-.09,0c.16.01.11-.01-.17-.08.19.08.15.04-.13-.09-1.89-1.06-3.28-2.69-5.65-2.57-1.24.06-2.33.65-3.22,1.49-.81.77-1.32,1.54-1.89,2.28-.33.42-.13.01.04,0,.11,0,.38-.04.48-.07.37-.1.09.23.19.02,0,0-.43-.49-.21-.21-.77-.94-1.35-1.93-2.46-2.51-2.67-1.39-5.14.5-5.89,3.08-.16.57-.26,1.16-.41,1.73.02-.07-.27.72-.16.52.04-.08-.33.26-.08.12-.36.19-.5.21-1.06.18-.42-.02-.83-.11-1.27-.25-1.34-.44-2.55-1.36-3.86-1.94-1.78-.79-3.41-1.09-5.35-.82-1.34.19-2.07,1.9-1.75,3.08.4,1.44,1.73,1.93,3.08,1.75.99-.14,2.14.6,2.96,1.05,1.17.63,2.31,1.31,3.59,1.71,2.35.74,5.29.65,7.14-1.17.88-.87,1.35-2,1.65-3.18.12-.48.2-.97.34-1.44.25-.87.03-.12.02-.16.15-.26.16-.29.01-.07-.22.26-.49.37-.8.32-.57,0-.71-.31-.27.2-.27-.31.28.38.26.35.18.24.37.49.56.72.78.97,1.78,1.68,3.02,1.87,2.56.38,3.94-1.65,5.2-3.11.14-.17.32-.32.46-.5.29-.37.21-.17.11-.08,0,0-.64.31-.05.04-.12.05-.43-.16.06.06-.35-.16.16.1.23.15.19.13.39.25.58.38.43.3.84.63,1.28.93,2.15,1.45,4.87,1.75,6.87-.16.9-.86,1.49-2.07,1.72-3.28.33-1.69-.08-3.28-.17-4.97,0-.18.05-.81,0-.91-1.22.81-1.39,1.14-.52.98l.45-.03c.91-.05,1.81-.06,2.72-.04,1.59.03,3.18.14,4.75.38,3.36.51,6.69,1.45,9.8,2.84,1.64.73,3.81-.1,3.76-2.16-.1-3.84-1.44-7.29-3.81-10.3-.84-1.06-2.66-.87-3.54,0-1.05,1.05-.84,2.47,0,3.54h0Z"/>
          </g>
          <g class="cls-4">
            <path d="M331.27,290.36c3.25,1.92,7.32,1.84,10.62.07,1.59-.85,2.94-2.16,3.86-3.71.84-1.41,1.34-3.02,2.02-4.48.23-.49.65-1.28.83-1.51.33-.41.65-.64.89-.68,1.15-.17,2.61,1.21,3.62,1.97,1.63,1.21,3.35,2.13,5.42,2.25s4.03-.66,5.61-1.83c4.25-3.16,5.03-8.36,5.35-13.31l-2.5,2.5c3.45-.24,6.66-1.43,9.39-3.57,1.34-1.05,2.47-2.27,3.44-3.67.4-.57.71-1.2,1.14-1.75.19-.17.16-.18-.1-.02.12-.02.23,0,.33.04.34.19.85.26,1.23.37,3.39,1.01,7.48,1.42,10.51-.79s4.26-5.93,2.54-9.25l-3.42,3.42c2.74,1.5,5.47,3,8.21,4.51,1.36.75,2.84,1.8,4.44,1.85,1.68.05,2.97-.81,3.92-2.15,1.69-2.4,3.04-5.11,4.53-7.64,1.63-2.76,3.25-5.52,4.88-8.29h-4.32c1.71,2.71,4.33,4.67,7.45,5.41,1.49.35,3.27-.73,3.16-2.41s-.42-4.06.57-5.61c.28-.44.67-.8,1.16-1,.55-.23.65-.22,1.1.06,2.74,1.7,5.26-2.62,2.52-4.32s-6.07-.76-8.11,1.43c-2.38,2.55-2.45,6.16-2.24,9.44l3.16-2.41c-1.87-.44-3.43-1.47-4.47-3.11s-3.34-1.66-4.32,0c-2.67,4.53-5.33,9.07-8,13.6-.28.47-.89,1.17-1,1.7-.09.13-.17.27-.24.41.35.09.5.05.45-.11.02-.26-3.07-1.67-3.42-1.87-2.3-1.26-4.61-2.53-6.91-3.79s-4.57,1.21-3.42,3.42c.82,1.58-1.47,3.13-2.98,3.31-3.05.37-6.01-2.02-8.97-.9-1.51.57-2.39,1.83-3.2,3.15-.64,1.05-1.41,1.96-2.34,2.76-1.84,1.6-4.24,2.6-6.68,2.78-1.42.1-2.41,1.07-2.5,2.5-.2,3.13-.42,7.15-3.17,9.21-1.05.79-2.41,1.25-3.66.68s-2.37-1.65-3.53-2.44c-2.85-1.94-6.64-2.17-9.06.61-1.89,2.18-2.23,5.15-3.88,7.41s-5.09,2.8-7.4,1.44c-2.78-1.64-5.3,2.68-2.52,4.32h0Z"/>
          </g>
          <g class="cls-2">
            <path class="cls-3" d="M158.98,26.9C142.29,9.48,116.21,5.62,92.15,4.06c-9.52-.62-19.17-1.02-28.51.9-18.23,3.76-33.97,16.45-43.39,32.51s-12.83,35.18-11.76,53.76c1.21,21,8.27,42.06,22.22,57.8,13.95,15.74,35.2,25.52,56.1,23.2,12.32-1.37,23.83-6.67,34.86-12.31,9.81-5.02,19.58-10.47,27.51-18.13,15.31-14.79,22.28-36.83,21.77-58.12-.51-21.28-7.88-41.91-17.8-60.74"/>
          </g>
          <g class="cls-4">
            <path class="cls-1" d="M172.59,23.35C155.9,5.94,129.82,2.07,105.76.51c-9.52-.62-19.17-1.02-28.51.9-18.23,3.76-33.97,16.45-43.39,32.51-9.41,16.06-12.83,35.18-11.76,53.76,1.21,21,8.27,42.06,22.22,57.8,13.95,15.74,35.2,25.52,56.1,23.2,12.32-1.37,23.83-6.67,34.86-12.31,9.81-5.02,19.58-10.47,27.51-18.13,15.31-14.79,22.28-36.83,21.77-58.12-.51-21.28-7.88-41.91-17.8-60.74"/>
          </g>
          <g class="cls-4">
            <path d="M17.31,59.37c16.04,15.71,35.88,27.41,57.35,33.96s46.51,7.72,69.47,2.85c13.07-2.77,25.73-7.45,37.47-13.81,2.83-1.53.31-5.85-2.52-4.32-20.25,10.97-43.27,16.56-66.29,16.24s-43.65-6.19-62.85-16.81c-10.63-5.88-20.42-13.14-29.1-21.64-2.3-2.25-5.84,1.28-3.54,3.54h0Z"/>
          </g>
          <g class="cls-4">
            <path d="M19.35,71.58c11.27,13.8,23.82,28.59,41.71,33.49,5.05,1.38,10.29,1.94,15.36,3.24,4.75,1.22,9.03,3.37,13.24,5.86s8.22,5.15,12.61,7.22,9.39,3.6,14.37,4.36c11.44,1.75,22.98.44,34.38-1,1.34-.17,2.5-1.03,2.5-2.5,0-1.22-1.15-2.67-2.5-2.5-9.86,1.25-19.85,2.46-29.79,1.56-4.79-.43-9.55-1.46-14.04-3.21s-8.42-4.26-12.44-6.7-8.19-4.88-12.67-6.56c-4.9-1.83-10.1-2.51-15.2-3.54-4.43-.89-8.72-2.18-12.76-4.24-3.81-1.94-7.38-4.34-10.67-7.05-7.76-6.4-14.23-14.19-20.57-21.95-.85-1.05-2.65-.89-3.54,0-1.03,1.03-.86,2.49,0,3.54h0Z"/>
          </g>
          <g class="cls-4">
            <path d="M21.25,84.18c7.13,9.99,15.55,19.01,25.12,26.69,4.81,3.86,9.86,7.41,15.15,10.57,5.72,3.42,11.62,6.27,18.32,6.98s14.28-.77,20.76,1.98c1.24.53,2.68.37,3.42-.9.61-1.05.35-2.89-.9-3.42-6.06-2.57-12.44-2.26-18.89-2.41-3.03-.07-6.01-.32-8.93-1.17s-5.88-2.3-8.63-3.85c-10.41-5.85-19.94-13.23-28.3-21.74-4.66-4.75-8.95-9.84-12.82-15.26-.78-1.1-2.18-1.62-3.42-.9-1.08.63-1.69,2.32-.9,3.42h0Z"/>
          </g>
          <g class="cls-4">
            <path d="M116.03,8.34c-1.76,22.51-13.81,42.47-26.86,60.26-3.8,5.18-7.75,10.25-11.73,15.3-.83,1.06-1.03,2.5,0,3.54.87.87,2.7,1.07,3.54,0,14.39-18.28,29.17-37.3,36.28-59.78,1.99-6.27,3.25-12.75,3.77-19.31.11-1.35-1.22-2.5-2.5-2.5-1.44,0-2.39,1.15-2.5,2.5h0Z"/>
          </g>
          <g class="cls-4">
            <path d="M126.88,18.17c-10.9,17.03-15.76,37.58-28.7,53.37-3.31,4.04-7.09,7.68-11.44,10.57-2.67,1.77-.17,6.1,2.52,4.32,17.33-11.47,24.81-31.43,33.22-49.46,2.6-5.58,5.39-11.08,8.72-16.28,1.74-2.72-2.59-5.23-4.32-2.52h0Z"/>
          </g>
          <g class="cls-4">
            <path d="M128.95,38.45c-.83,13.42-6.5,26.48-15.59,36.37-2.57,2.79-5.39,5.36-8.46,7.59-1.09.79-1.63,2.17-.9,3.42.63,1.08,2.32,1.7,3.42.9,11.97-8.71,20.72-21.45,24.53-35.76,1.09-4.09,1.74-8.3,2-12.52.2-3.21-4.8-3.2-5,0h0Z"/>
          </g>
          <g class="cls-4">
            <path d="M15.9,102.47c2.39,13.75,9.44,26.17,18.6,36.55,4.61,5.23,9.77,9.95,15.28,14.23,5.77,4.48,11.85,8.73,18.47,11.85,7.89,3.72,16.88,5.91,25.41,3.05,3.04-1.02,1.73-5.85-1.33-4.82-6.72,2.25-13.82.86-20.17-1.92s-12.36-6.81-17.95-11.03c-10.41-7.85-19.78-17.51-26.18-28.93-3.55-6.33-6.05-13.16-7.29-20.31-.23-1.33-1.86-2.08-3.08-1.75-1.41.39-1.98,1.74-1.75,3.08h0Z"/>
          </g>
          <g class="cls-4">
            <path d="M.17,86.45c-.93,16.77,1.87,33.7,7.75,49.4,5.94,15.85,14.87,30.5,26.23,43.05s24.84,22.67,40.03,29.63c19.15,8.77,40.12,11.89,60.84,14.49,22.52,2.82,45.09,5.15,67.71,7,2.75.23,5.51.44,8.26.65,1.91.15,3.09-2.23,2.16-3.76-4.84-8.01-13.18-12.53-21.74-15.6-4.56-1.64-9.25-2.9-13.92-4.19-5.69-1.57-11.41-3.07-17.21-4.2-10.75-2.1-21.89-2.96-32.66-.56-8.83,1.97-17.43,6.1-23.85,12.57-3.27,3.3-6.45,7.48-7.77,11.99-1.58,5.42,1.25,10.16,5.11,13.76,7.43,6.92,16.25,12.64,25.19,17.4,18.57,9.89,39.12,15.56,59.99,17.79,23.5,2.51,47.29.62,70.47-3.64,2.81-.52,5.62-1.07,8.42-1.66,3.15-.66,1.82-5.48-1.33-4.82-21.84,4.56-44.19,7.11-66.52,5.99-20.07-1.01-40.15-5.11-58.6-13.18-9-3.94-17.62-8.78-25.58-14.56-3.7-2.69-7.81-5.54-10.7-9.13-1.26-1.57-2.19-3.48-1.9-5.54.31-2.19,1.62-4.25,2.81-6.07,4.55-6.9,11.85-11.68,19.56-14.37,9.18-3.2,18.88-3.52,28.47-2.37,10.72,1.29,21.26,4.33,31.6,7.35,7.85,2.29,16.21,5.07,22.17,10.94,1.42,1.4,2.62,2.93,3.65,4.63l2.16-3.76c-22.21-1.7-44.38-3.86-66.5-6.5-20.92-2.49-42.27-4.9-62.06-12.54-15.12-5.84-28.83-15.14-40.28-26.57-11.56-11.55-20.84-25.3-27.32-40.3-6.41-14.84-9.9-31.03-9.86-47.21,0-2.04.07-4.07.18-6.11.18-3.22-4.82-3.21-5,0H.17Z"/>
          </g>
        </g>
      </g>
    </g>
  </g>
</svg>