<?xml version="1.0" encoding="UTF-8"?>
<svg id="Layer_2" xmlns="http://www.w3.org/2000/svg" viewBox="0 0 155.05 162.21">
  <defs>
    <style>
      .cls-1 {
        fill: #f4694a;
      }

      .cls-2 {
        fill: #ffcf4a;
      }
    </style>
  </defs>
  <g id="Layer_1-2" data-name="Layer_1">
    <g>
      <path class="cls-2" d="M137.46,9.5C132.25,2.87,123.2.64,114.79.13c-7.58-.46-15.56.22-22.02,4.21-6.46,3.99-10.89,12-8.8,19.3l3.25,12.92c-4.1-10.21-8.75-21.1-18.11-26.88-14.39-8.89-35.31-.38-42.23,15.05-6.92,15.43-1.42,34.53,10.4,46.63-9.98,3.37-19.89,7.86-27.27,15.38-7.38,7.52-11.85,18.57-9.27,28.78,2.58,10.21,13.55,18.29,23.74,15.62,2.23-.58,4.3-1.6,6.31-2.78-3.7,12.52-12.4,23.54-20.81,33.85,6.73-4.16,13.46-8.32,20.19-12.47,3.86-2.39,7.75-4.79,11.11-7.84,2.94-2.67,5.41-5.84,7.35-9.3,1.5,4.4,3.42,8.62,6.2,12.33,5.17,6.9,14.16,11.69,22.46,9.34,3.52-1,6.61-3.17,9.34-5.6,13.22-11.81,19.18-31.17,14.87-48.36,2.76,10.24,12.18,18.34,22.73,19.52,10.54,1.18,21.52-4.63,26.48-14.01,3.54-6.71,4.06-14.57,4.27-22.15.22-8,.11-16.36-3.58-23.46-3.69-7.1-12.05-12.41-19.69-10.01,3.73-6.28,7.5-12.69,9.2-19.79,1.7-7.1,1.04-15.15-3.46-20.89Z"/>
      <path class="cls-1" d="M65.71,68.82c-1.66,0-3.06,1.4-3.58,2.97-.52,1.57-.35,3.29-.11,4.93.85,5.69,2.72,11.64,7.25,15.18,6.6,5.16,16.46,3.28,23.54-1.2,2.29-1.45,4.47-3.19,5.88-5.5,3.01-4.94,1.89-11.3.02-16.78-.96-2.82-2.14-5.65-4.19-7.82-4.29-4.54-11.61-5.09-17.43-2.81-5.82,2.28-10.41,6.86-14.5,11.58"/>
    </g>
  </g>
</svg>