<?xml version="1.0" encoding="UTF-8"?>
<svg id="Layer_2" xmlns="http://www.w3.org/2000/svg" viewBox="0 0 197.4 186.82">
  <defs>
    <style>
      .cls-1 {
        fill: #f4694a;
      }

      .cls-2 {
        fill: #ffcf4a;
      }
    </style>
  </defs>
  <g id="Layer_1-2" data-name="Layer_1">
    <g>
      <path class="cls-1" d="M10.65,18.42C15.93,9.36,26.71,5.08,36.99,3.01c9.27-1.86,19.22-2.38,27.86,1.44,8.64,3.82,15.47,12.94,14.14,22.29l-1.81,16.48c3.31-13.28,7.19-27.5,17.74-36.22,16.23-13.41,43.45-6.48,54.61,11.36,11.16,17.85,7.63,42.32-4.88,59.24,12.88,2.45,25.86,6.31,36.23,14.32s17.76,20.87,16.32,33.9c-1.44,13.03-13.58,24.85-26.6,23.3-2.85-.34-5.57-1.25-8.25-2.36,6.69,14.81,19.29,26.9,31.41,38.18-9-3.98-18.01-7.96-27.01-11.94-5.17-2.28-10.37-4.59-15.03-7.77-4.08-2.79-7.67-6.27-10.65-10.22-1.1,5.68-2.74,11.21-5.55,16.26-5.2,9.38-15.47,16.82-26.09,15.34-4.51-.63-8.68-2.78-12.47-5.32-18.31-12.3-28.95-35.15-26.57-57.08-1.66,13.09-11.9,24.68-24.69,27.93-12.79,3.25-27.32-2.05-35.02-12.76-5.51-7.67-7.48-17.26-9.03-26.58-1.64-9.82-2.92-20.15.41-29.52,3.34-9.38,12.75-17.34,22.56-15.69-5.66-7.11-11.41-14.36-14.71-22.83-3.31-8.47-3.87-18.49.71-26.34Z"/>
      <path class="cls-2" d="M102.45,75.08c4.51-1.3,9.55.82,12.52,4.44s4.1,8.49,4.02,13.18c-.07,4.56-1.29,9.26-4.32,12.66-3.67,4.12-9.51,5.77-15.02,5.57-5.51-.2-10.83-2.02-16.03-3.85-1.79-.63-3.62-1.29-5.09-2.51-4.59-3.81-3.69-10.96-2.38-16.77.8-3.56,1.78-7.4,4.63-9.68,1.56-1.25,3.51-1.87,5.42-2.43,5.06-1.46,10.22-2.57,15.43-3.32"/>
    </g>
  </g>
</svg>