<?xml version="1.0" encoding="UTF-8"?>
<svg xmlns="http://www.w3.org/2000/svg" viewBox="0 0 148.6 663.06">
  <defs>
    <style>
      .cls-1 {
        fill: #ffcf4a;
      }

      .cls-2 {
        isolation: isolate;
      }

      .cls-3 {
        fill: #f469bc;
      }

      .cls-4 {
        mix-blend-mode: multiply;
      }
    </style>
  </defs>
  <g class="cls-2">
    <g id="Layer_2">
      <g id="Layer_1-2" data-name="Layer_1">
        <g>
          <g class="cls-2">
            <path class="cls-3" d="M138.94,6.47c-10.94,9.47-24.36,16.03-38.55,18.85-4.33.86-8.82,1.38-13.15.51-10.18-2.02-17.26-10.95-25.71-16.98C43.52-4.01,16.74-2.72.03,11.8c2.31,12.54,4.63,25.08,6.94,37.62.16.84.34,1.74.92,2.36,1.47,1.57,4.06.37,5.83-.84,7.71-5.29,16.09-10.09,25.34-11.48,9.25-1.39,19.58,1.22,25.39,8.56,6.02,7.6,6.02,18.18,5.73,27.87l.54-.04-.49.04c-.18,184.34-.37,368.67-.55,553.01l-8.04,25.74c-.46,1.48-.92,3.06-.47,4.54.96,3.15,5.09,3.75,8.38,3.76,10.15.04,20.29.08,30.44.11,3.78.01,8.7-.87,9.28-4.61.22-1.38-.3-2.76-.8-4.06-2.94-7.58-5.88-15.16-8.82-22.74V73.49c4.37-13.88,19.26-21.03,32.2-27.72,2.64-1.37,5.37-2.87,7.02-5.35,1.49-2.24,1.92-5,2.18-7.68.83-8.79.11-17.73-2.12-26.27Z"/>
            <path class="cls-3" d="M0,11.83s.02-.02.03-.03c-.01-.06-.02-.13-.03-.19v.22Z"/>
          </g>
          <g class="cls-4">
            <path class="cls-1" d="M146.14,6.47c-10.94,9.47-24.36,16.03-38.55,18.85-4.33.86-8.82,1.38-13.15.51-10.18-2.02-17.26-10.95-25.71-16.98C50.72-4.01,23.93-2.72,7.23,11.8c2.31,12.54,4.63,25.08,6.94,37.62.16.84.34,1.74.92,2.36,1.47,1.57,4.06.37,5.83-.84,7.71-5.29,16.09-10.09,25.34-11.48,9.25-1.39,19.58,1.22,25.39,8.56,6.02,7.6,6.02,18.18,5.73,27.87l.54-.04-.49.04c-.18,184.34-.37,368.67-.55,553.01l-8.04,25.74c-.46,1.48-.92,3.06-.47,4.54.96,3.15,5.09,3.75,8.38,3.76,10.15.04,20.29.08,30.44.11,3.78.01,8.7-.87,9.28-4.61.22-1.38-.3-2.76-.8-4.06-2.94-7.58-5.88-15.16-8.82-22.74V73.49c4.37-13.88,19.26-21.03,32.2-27.72,2.64-1.37,5.37-2.87,7.02-5.35,1.49-2.24,1.92-5,2.18-7.68.83-8.79.11-17.73-2.12-26.27Z"/>
            <path class="cls-1" d="M7.2,11.83s.02-.02.03-.03c-.01-.06-.02-.13-.03-.19v.22Z"/>
          </g>
          <path d="M75.05,62.87c1.05,5.48,5.61,9.41,10.64,11.3,6.21,2.33,13.13,1.12,19.47.02,1.33-.23,2.08-1.86,1.75-3.08-.39-1.41-1.74-1.98-3.08-1.75-5.26.91-10.92,1.93-16.13.22-3.76-1.23-7.06-4.05-7.83-8.05-.25-1.33-1.85-2.08-3.08-1.75-1.39.38-2,1.74-1.75,3.08h0Z"/>
          <path d="M75.4,80.11c8.6,7.27,21.03,8.78,31.09,3.69,2.87-1.45.34-5.77-2.52-4.32-7.93,4.01-18.24,2.84-25.03-2.91-1.03-.87-2.52-1.01-3.54,0-.89.89-1.04,2.66,0,3.54h0Z"/>
          <path d="M73.08,630.8c4.87,4.63,11.06,7.89,17.68,9.12,6.07,1.13,14.06,1.43,18.06-4.19.78-1.1.2-2.78-.9-3.42-1.25-.73-2.64-.21-3.42.9-1.22,1.71-3.74,2.17-5.69,2.3-2.65.17-5.32-.07-7.91-.65-5.36-1.21-10.3-3.8-14.28-7.59-2.33-2.22-5.87,1.31-3.54,3.54h0Z"/>
        </g>
      </g>
    </g>
  </g>
</svg>