<?xml version="1.0" encoding="UTF-8"?>
<svg xmlns="http://www.w3.org/2000/svg" viewBox="0 0 399.47 384.79">
  <defs>
    <style>
      .cls-1 {
        fill: #ffcf4a;
      }

      .cls-2 {
        isolation: isolate;
      }

      .cls-3 {
        fill: #f469bc;
      }

      .cls-4 {
        mix-blend-mode: multiply;
      }
    </style>
  </defs>
  <g class="cls-2">
    <g id="Layer_2">
      <g id="Layer_1-2" data-name="Layer_1">
        <g>
          <path class="cls-3" d="M398.99,99.74c-.49-19.46-1.11-39.48-8.92-57.31-7.81-17.83-24.68-33.14-44.14-33.04-10.94.05-21.24,4.82-31.03,9.71-3.99,1.99-9.94,10.43-12,14.39C210.65,124.8,118.4,216.13,26.15,307.45l-1.44,1.21c-17.13,9.07-27.17,28.57-18.57,43.98,5.49,9.84,17.04,16.27,28.65,21.11,24.71,10.32,54.66,15.63,79.67,5.91v1.22c9.25-9.16,18.61-18.42,28-27.71.38,3.5,6.57,1.47,11.31,1.69,8.14.38,16.92.19,23.54-4.58,5.89-4.24,9-11.51,9.82-18.73.8-7.02-.31-14.1-1.47-21.08,48.49-47.9,97.97-96.71,146.39-144.55,3.82,3.59,9.92,3.94,15.13,2.79,18.46-4.07,31.12-25.27,26-43.45,8.65-8.56,17.27-17.08,25.81-25.53Z"/>
          <g class="cls-4">
            <path class="cls-1" d="M395.99,90.35c-.49-19.46-1.11-39.48-8.92-57.31C379.25,15.21,362.39-.09,342.93,0c-10.94.05-21.24,4.82-31.03,9.71-3.99,1.99-9.94,10.43-12,14.39C207.65,115.42,115.4,206.74,23.15,298.06l-1.44,1.21c-17.13,9.07-27.17,28.57-18.57,43.98,5.49,9.84,17.04,16.27,28.65,21.11,24.71,10.32,54.66,15.63,79.67,5.91v1.22c9.25-9.16,18.61-18.42,28-27.71.38,3.5,6.57,1.47,11.31,1.69,8.14.38,16.92.19,23.54-4.58,5.89-4.24,9-11.51,9.82-18.73.8-7.02-.31-14.1-1.47-21.08,48.49-47.9,97.97-96.71,146.39-144.55,3.82,3.59,9.92,3.94,15.13,2.79,18.46-4.07,31.12-25.27,26-43.45,8.65-8.56,17.27-17.08,25.81-25.53Z"/>
          </g>
          <g class="cls-4">
            <path d="M395.21,88.5c-20.35,20.58-41.5,40.3-63.21,59.43-10.81,9.53-21.35,19.27-31.37,29.63s-20.07,20.87-30.4,31.02c-21.21,20.82-42.53,41.54-63.8,62.31s-42.64,41.63-63.96,62.45c-9.57,9.34-18.87,19.31-29.62,27.33-10.64,7.94-22.82,13.24-36.23,13.67-3.4.11-6.79-.08-10.16-.52-1.34-.18-2.5,1.28-2.5,2.5,0,1.5,1.16,2.32,2.5,2.5,13.65,1.8,27.53-1.02,39.53-7.7,11.32-6.3,20.75-15.43,29.95-24.41,21.47-20.95,42.93-41.92,64.39-62.87,21.55-21.04,43.1-42.09,64.66-63.13,10.42-10.18,20.78-20.4,30.86-30.92,10.1-10.55,20.27-20.96,31.14-30.72s21.82-19.24,32.52-29.11c10.71-9.88,21.25-19.96,31.59-30.23,2.57-2.55,5.12-5.11,7.66-7.68,2.26-2.29-1.27-5.83-3.54-3.54h0Z"/>
          </g>
          <g class="cls-4">
            <path d="M160.99,327.02c-.2,1.22-.41,2.46-.36,3.7.06,1.36.36,2.83,1.16,3.95.46.64.9,1.09,1.55,1.53.45.3.97.51,1.49.66s1.07.22,1.6.22,1.09-.07,1.59-.24c.71-.25,1.36-.58,1.89-1.13s.93-1.23,1.08-1.96c.14-.66.1-1.33-.25-1.93-.3-.52-.9-1.01-1.49-1.15-.64-.15-1.36-.11-1.93.25-.53.34-1.02.86-1.15,1.49-.02.12-.06.23-.1.34l.25-.6c-.06.14-.13.26-.22.38l.39-.51c-.09.11-.19.21-.3.3l.51-.39c-.15.11-.3.2-.47.27l.6-.25c-.22.09-.44.14-.67.18l.66-.09c-.28.03-.56.03-.84,0l.66.09c-.31-.04-.6-.12-.89-.24l.6.25c-.23-.1-.44-.22-.63-.37l.51.39c-.16-.13-.3-.27-.43-.42l.39.51c-.21-.27-.37-.57-.5-.88l.25.6c-.17-.41-.27-.84-.34-1.28l.09.66c-.12-.92-.05-1.84.08-2.75l-.09.66c.04-.3.09-.61.14-.91.11-.68.11-1.31-.25-1.93-.3-.52-.9-1.01-1.49-1.15-.64-.15-1.36-.11-1.93.25-.51.33-1.05.86-1.15,1.49h0Z"/>
          </g>
          <g class="cls-4">
            <path d="M346.84,142.57c.08.08.16.16.23.25l-.39-.51c.13.18.24.36.33.56l-.25-.6c.1.26.17.52.21.8l-.09-.66c.12.89,0,1.78-.04,2.67-.07,1.25.07,2.46.59,3.61.25.55.65,1.06,1.11,1.44.87.7,1.77,1.05,2.89,1.16,1.59.15,3.19-.58,4.35-1.61s1.82-2.42,2.41-3.79c.28-.64.45-1.22.25-1.93-.16-.58-.61-1.21-1.15-1.49-.58-.31-1.28-.46-1.93-.25-.58.19-1.24.57-1.49,1.15-.4.92-.8,1.84-1.41,2.63l.39-.51c-.25.31-.51.59-.82.83l.51-.39c-.23.17-.47.31-.73.43l.6-.25c-.3.12-.6.21-.91.26l.66-.09c-.28.03-.55.04-.82,0l.66.09c-.2-.03-.39-.09-.58-.16l.6.25c-.16-.07-.3-.15-.44-.25l.51.39c-.17-.13-.31-.28-.44-.44l.39.51c-.11-.16-.2-.32-.28-.49l.25.6c-.12-.28-.19-.57-.23-.88l.09.66c-.13-1.07.06-2.15.07-3.22.01-1.58-.39-3.16-1.55-4.3-.93-.92-2.62-1-3.54,0s-1,2.56,0,3.54h0Z"/>
          </g>
        </g>
      </g>
    </g>
  </g>
</svg>