<?xml version="1.0" encoding="UTF-8"?>
<svg xmlns="http://www.w3.org/2000/svg" viewBox="0 0 756.33 459.01">
  <defs>
    <style>
      .cls-1 {
        fill: #ffcf4a;
      }

      .cls-2 {
        isolation: isolate;
      }

      .cls-3 {
        fill: #f469bc;
      }

      .cls-4 {
        mix-blend-mode: multiply;
      }
    </style>
  </defs>
  <g class="cls-2">
    <g id="Layer_2">
      <g id="Layer_1-2" data-name="Layer_1">
        <g>
          <g class="cls-2">
            <path class="cls-3" d="M632.9,53.76c41.6,35.59,64.54,87.93,83.62,139.25,16.89,45.44,31.92,91.95,37.94,140.06,3.85,30.79,3.13,64.72-15.87,89.26-6.94,8.97-15.96,16.13-25.47,22.3-12.04,7.81-25.62,14.31-39.97,14.25-26.03-.1-46.75-21.02-63.38-41.05-33.54-40.4-63.77-83.56-90.27-128.89l-33.45-.94c11.15,0,22.3,0,33.45,0H237.89l3,1.07c-26.5,45.33-56.73,88.49-90.27,128.89-16.63,20.03-37.34,40.95-63.38,41.05-14.35.06-27.93-6.45-39.97-14.25-9.51-6.17-18.53-13.33-25.47-22.3-18.99-24.54-19.72-58.47-15.87-89.26,6.02-48.1,21.05-94.62,37.94-140.06,19.08-51.32,42.01-103.65,83.62-139.25l-4,.33c164.01-32.67,333.91-34.28,510.64,0"/>
          </g>
          <g class="cls-4">
            <path class="cls-1" d="M632.9,24.65c41.6,35.59,64.54,87.93,83.62,139.25,16.89,45.44,31.92,91.95,37.94,140.06,3.85,30.79,3.13,64.72-15.87,89.26-6.94,8.97-15.96,16.13-25.47,22.3-12.04,7.81-25.62,14.31-39.97,14.25-26.03-.1-46.75-21.02-63.38-41.05-33.54-40.4-63.77-83.56-90.27-128.89l-33.45-.94c11.15,0,22.3,0,33.45,0H237.89l3,1.07c-26.5,45.33-56.73,88.49-90.27,128.89-16.63,20.03-37.34,40.95-63.38,41.05-14.35.06-27.93-6.45-39.97-14.25-9.51-6.17-18.53-13.33-25.47-22.3-18.99-24.54-19.72-58.47-15.87-89.26,6.02-48.1,21.05-94.62,37.94-140.06C62.97,112.71,85.9,60.38,127.51,24.78l-4,.33c164.01-32.67,333.91-34.28,510.64,0"/>
          </g>
          <g class="cls-4">
            <path d="M164.69,69.47c-7.15,3.34-14.34,6.86-20.32,12.1-2.96,2.6-5.58,5.68-7.46,9.15-2.23,4.12-3.34,8.63-3.91,13.25-1.08,8.69-.73,18.55,4.1,26.15,4.47,7.06,11.94,11.28,19.27,14.83,8.14,3.94,16.61,7.94,25.64,9.26,4.49.66,9.05.68,13.46-.47,4.17-1.08,7.97-3.21,11.2-6.05,6.45-5.67,10.15-13.79,12.6-21.86,1.4-4.6,2.46-9.29,3.7-13.94s2.99-9.25,3.62-14.07c1.12-8.62-2.56-16.92-8.23-23.26-5.96-6.67-14.11-10.87-22.21-14.33-2.14-.92-4.3-1.8-6.45-2.68-1.25-.51-2.75.55-3.08,1.75-.39,1.43.49,2.56,1.75,3.08,7.61,3.09,15.51,6.26,21.97,11.47,5.62,4.53,10.43,10.93,11.34,18.27.52,4.2-.53,8.21-1.73,12.2-1.3,4.31-2.41,8.65-3.53,13.01-2.01,7.9-4.3,15.93-9.28,22.53-4.65,6.16-11.41,9.79-19.17,9.82-8.37.04-16.5-3.22-23.99-6.66-6.74-3.09-14.02-6.23-19.36-11.52-5.78-5.73-7.25-13.57-7.05-21.44.19-7.84,1.75-15.7,7.08-21.74,4.78-5.42,11.2-9.03,17.61-12.19,1.64-.81,3.3-1.59,4.96-2.37,1.22-.57,1.53-2.33.9-3.42-.73-1.25-2.19-1.47-3.42-.9h0Z"/>
          </g>
          <g class="cls-4">
            <path d="M498.48,144.03c-9.28-2.61-19.17.66-26.35,6.75s-11.82,15.05-14.88,23.93c-5.62,16.33-6,37,7.14,49.95,6.56,6.46,15.43,10.05,24.33,11.86,9.43,1.91,19.85,2.7,29.15-.26s15.6-9.42,20.39-17.35c2.24-3.71,4.09-7.63,5.83-11.6,1.99-4.56,4.05-9.16,5.32-13.98s1.72-10-.05-14.69c-1.82-4.83-5.58-8.36-9.43-11.61-7.65-6.46-16.16-11.87-25.3-15.96-2.3-1.03-4.63-1.98-7-2.86-1.27-.47-2.74.53-3.08,1.75-.38,1.4.48,2.6,1.75,3.08,8.64,3.21,16.82,7.63,24.3,13.01,3.67,2.65,7.34,5.52,10.46,8.82s4.61,6.98,4.45,11.44c-.16,4.58-1.82,9.04-3.52,13.24-1.53,3.77-3.15,7.52-4.95,11.16-3.48,7.04-7.92,14.05-14.81,18.18-7.77,4.66-17.28,4.79-26.03,3.79-8.15-.92-16.44-3.09-23.37-7.6s-11.16-10.96-13.09-18.65c-1.92-7.64-1.44-15.79.33-23.42,1.89-8.17,5.17-16.43,10.3-23.13,4.98-6.5,12.46-11.56,20.86-11.77,2.02-.05,3.97.2,5.92.74,3.1.87,4.43-3.95,1.33-4.82h0Z"/>
          </g>
          <g class="cls-4">
            <path d="M513.05,91.95c-4.54,7.13-6.98,18.4.46,24.59,3.75,3.12,8.72,3.95,13.47,3.96s9.99-.69,13.18-4.74c3.17-4.02,3.54-9.43,3.59-14.36.04-3.22-4.96-3.22-5,0s-.06,6.86-1.57,9.79c-1.75,3.4-5.08,4.16-8.67,4.28s-7.61-.04-10.78-2.02c-2.71-1.68-3.95-4.64-3.99-7.74-.04-4.01,1.5-7.91,3.63-11.26,1.73-2.72-2.59-5.23-4.32-2.52h0Z"/>
          </g>
          <g class="cls-4">
            <path d="M551.12,121.84c-4.61,5.77-4.21,14.09.28,19.84,5.2,6.66,14.38,6.75,21.2,2.58,4.03-2.46,7.36-6.12,9.56-10.28,1.5-2.84-2.81-5.37-4.32-2.52-2.82,5.34-8.27,10.57-14.65,10.73-5.61.15-9.51-4-10.3-9.33-.36-2.45.14-5.46,1.76-7.49.84-1.05,1.03-2.51,0-3.54-.87-.87-2.69-1.06-3.54,0h0Z"/>
          </g>
          <g class="cls-4">
            <path d="M588.07,97.65c-3.95,6.31.22,14.29,6.35,17.26,3.35,1.62,7.05,2.23,10.74,2.38,1.96.08,4.04-.04,5.71-1.19,1.49-1.03,2.43-2.56,3.15-4.19,2-4.49,3.66-9.13,5.02-13.85.89-3.1-3.93-4.42-4.82-1.33-1.22,4.24-2.66,8.45-4.44,12.49-.54,1.23-1.08,2.81-2.57,3.06-1.61.27-3.58-.01-5.17-.25-3.21-.47-6.83-1.6-8.86-4.33-1.62-2.17-2.28-5.14-.79-7.52,1.71-2.73-2.61-5.25-4.32-2.52h0Z"/>
          </g>
          <g class="cls-4">
            <path d="M557.64,66.9c-6.4,2.03-9.82,9.16-8.38,15.55,1.56,6.92,8.12,11.76,14.81,13.08,4.68.92,9.43.51,14.06-.48,3.14-.67,1.81-5.5-1.33-4.82-7.07,1.52-15.76,1.4-20.66-4.81-1.77-2.25-2.66-5.11-2.01-7.91.6-2.57,2.24-4.97,4.84-5.79,3.06-.97,1.75-5.8-1.33-4.82h0Z"/>
          </g>
          <g class="cls-4">
            <path d="M106.85,57.8c4.23-6.3,13.3-6.79,20.14-7.08,10.94-.46,21.86-1.04,32.78-1.89s22-1.96,32.96-3.28c5.46-.66,10.91-1.37,16.35-2.14,2.77-.39,5.55-.8,8.32-1.22,2.39-.36,4.83-.63,7.17-1.23s4.87-1.76,6.52-3.74c1.42-1.7,2.23-3.76,2.65-5.91.71-3.58.21-8.55,2.78-11.41,2.15-2.38-1.38-5.93-3.54-3.54-2.85,3.17-3.26,7.23-3.73,11.29-.39,3.36-1.03,6.72-4.54,8.05-2.13.8-4.47,1.04-6.7,1.38-2.77.43-5.54.84-8.31,1.24-5.49.79-10.98,1.51-16.49,2.18-21.88,2.65-43.85,4.33-65.87,5.22-8.98.36-19.36,1.44-24.81,9.57-1.8,2.68,2.53,5.19,4.32,2.52h0Z"/>
          </g>
          <g class="cls-4">
            <path d="M525.54,11.97c-.49,6.56-.54,13.97,2.92,19.82,1.88,3.18,4.8,5.46,8.3,6.61,2.14.7,4.42.94,6.65,1.21,2.34.28,4.68.56,7.02.86,19.13,2.43,38.17,5.65,57.04,9.6,9.66,2.02,19.46,4.21,28.2,8.97,2.83,1.54,5.35-2.78,2.52-4.32-7.65-4.16-16.05-6.54-24.5-8.42-9.04-2.01-18.14-3.76-27.25-5.37s-18.52-3.1-27.82-4.37c-4.75-.65-9.51-1.27-14.27-1.83-3.47-.41-7.28-.77-9.89-3.3-4.84-4.69-4.38-13.18-3.92-19.45.1-1.35-1.22-2.5-2.5-2.5-1.44,0-2.4,1.15-2.5,2.5h0Z"/>
          </g>
          <g class="cls-4">
            <path d="M225.14,178.91c6.49.37,12.98.74,19.46,1.11l9.48.54c2.79.16,5.87.71,8.62.05,2.94-.7,4.43-3.22,4.66-6.08s0-6.08-.02-9.08c-.02-3.19-.05-6.38-.07-9.56-.01-1.41-.05-2.82-.03-4.23.01-.98.02-2.12.69-2.9,1.35-1.57,4.25-1.75,6.13-2.13,3.12-.62,6.23-1.25,9.35-1.87,1.52-.3,3.04-.61,4.55-.91.64-.13,1.28-.26,1.92-.38.38-.08.76-.18,1.14-.23.09-.02.17-.04.26-.04.44.03.49,0,.15-.08.39.5.57,1.83.76,2.48.43,1.5.82,3.01,1.16,4.53,1.27,5.73,1.82,11.58,1.68,17.45-.06,2.64-.75,5.69.21,8.23,1.12,2.97,3.87,3.89,6.8,4.01,6.17.26,12.36.3,18.54.45,1.56.04,3.11.07,4.67.11,1.14.03,2.3.02,3.4.37,2.07.67,1.99,2.98,2.02,4.81.1,6.22.26,12.46.23,18.69,0,.75.04,1.64-.58,2.01s-1.8.25-2.6.14c-2.88-.38-5.75-1.18-8.6-1.78-3.18-.67-6.36-1.33-9.54-2-2.71-.57-5.65-1.54-8.44-1.21s-4.94,2.26-5.68,5-.41,5.62-.4,8.34c.01,3.22.03,6.44.04,9.66,0,1.49.01,2.97.02,4.46,0,.73.01,1.45,0,2.18,0,.36.11.99-.17,1.3-.42.48-2.07.34-2.62.38-1.63.11-3.26.22-4.89.32-3.1.2-6.2.41-9.3.61-1.55.1-3.1.2-4.65.31-.91.06-2.94.56-3.69-.04-.4-.32-.49-1.32-.53-1.91-.1-1.44,0-2.9.02-4.33.05-3.13.1-6.26.14-9.38.02-1.48.05-2.96.07-4.45.02-1.4.18-2.91-.2-4.28s-1.33-2.5-2.68-3.03c-1.41-.55-2.97-.36-4.45-.31-3.14.12-6.27.25-9.41.37-6.36.25-12.71.5-19.07.75-3.14.12-6.27.25-9.41.37l2.5,2.5c.92-8.27,1.84-16.54,2.77-24.82.15-1.34-1.26-2.5-2.5-2.5-1.48,0-2.35,1.15-2.5,2.5-.92,8.27-1.84,16.54-2.77,24.82-.15,1.31,1.26,2.55,2.5,2.5,13.13-.51,26.25-1.07,39.38-1.54.32-.01.75.06,1.05-.05-.28.11-.2-.58-.18.42.02,1.59-.05,3.18-.07,4.77-.05,3.29-.1,6.59-.15,9.88-.04,2.74-.46,5.84.39,8.5.97,3.08,3.49,4.53,6.64,4.4,6.34-.25,12.7-.84,19.03-1.26,2.8-.18,6.31.06,8.35-2.24s1.38-6.33,1.37-9.23c-.01-3.3-.03-6.61-.04-9.91,0-1.49-.01-2.97-.02-4.46,0-1.24-.1-2.55.12-3.78.12-.64.29-1.41.92-1.74.91-.48,2.31-.08,3.26.12,3.26.66,6.52,1.37,9.78,2.05s6.52,1.37,9.78,2.05c2.51.53,5.25,1.2,7.77.35,2.96-.99,4.17-3.67,4.21-6.62.04-3.17-.07-6.34-.11-9.51-.04-3.25-.05-6.51-.12-9.76-.06-2.7-.45-5.63-2.57-7.55s-4.91-2.18-7.6-2.26c-3.27-.09-6.55-.16-9.82-.24s-6.38-.15-9.58-.23c-1.47-.04-2.95-.01-4.42-.12-.74-.05-1.52-.06-1.79-.83-.37-1.06-.04-2.5.02-3.6.1-1.56.14-3.12.14-4.67,0-3.12-.2-6.24-.59-9.33s-.95-6.3-1.72-9.4c-.62-2.51-1.12-6.1-3.27-7.8-2.45-1.94-6.09-.51-8.8.04-3.2.64-6.39,1.28-9.59,1.92-5.12,1.02-12.38,1.56-13.61,7.86-.57,2.94-.22,6.12-.2,9.09.02,3.19.05,6.38.07,9.56.01,1.63.03,3.27.04,4.9,0,.72.24,2.23-.29,2.86s-1.78.47-2.49.45c-1.68-.06-3.37-.19-5.05-.28-6.57-.38-13.14-.75-19.71-1.13-3.24-.19-6.49-.37-9.73-.56s-3.2,4.82,0,5h0Z"/>
          </g>
          <g class="cls-4">
            <path d="M.06,332.51c-.46,13.94,1.57,28.07,6.21,41.23s11.73,25.25,21.66,34.89c5.06,4.91,10.83,9.13,17.08,12.38,7.6,3.96,15.81,6.63,24.12,8.63,4.15,1,8.33,1.85,12.52,2.64,4.52.85,9.09,1.67,13.7,1.84,8.28.29,16.06-2.18,22.68-7.15,6.25-4.69,11.23-10.69,15.86-16.94,5.43-7.34,10.45-14.97,15.39-22.65,1.21-1.89,2.42-3.78,3.63-5.67,1.74-2.72-2.59-5.23-4.32-2.52-4.74,7.42-9.49,14.85-14.53,22.07-4.4,6.3-8.95,12.62-14.54,17.94-5.12,4.87-11.32,8.8-18.46,9.71-4.28.55-8.68.14-12.92-.54s-8.3-1.48-12.42-2.36c-14.83-3.16-29.47-7.99-41.12-18.05-9.79-8.45-17.17-19.51-21.98-31.48s-7.51-25.74-7.63-39.09c-.02-1.63,0-3.26.06-4.89.11-3.22-4.89-3.21-5,0H.06Z"/>
          </g>
          <g class="cls-4">
            <path d="M585.69,363.1c5.77,12.46,13.86,23.85,23.66,33.45,10.02,9.82,21.83,17.83,34.83,23.14,13.16,5.37,27.74,7.91,41.9,6.04,7.23-.96,14.19-3.06,20.7-6.34s12.78-7.9,18.47-12.76,10.95-9.67,15.8-15.05c4.57-5.07,8.88-11.07,10-17.96.29-1.76.41-3.52.29-5.3-.09-1.35-1.09-2.5-2.5-2.5-1.29,0-2.59,1.15-2.5,2.5.42,6.43-2.63,12.22-6.57,17.09-4.37,5.41-9.62,10.16-14.78,14.81s-10.69,9.12-16.75,12.69-12.4,6-19.2,7.32c-26.46,5.15-53.94-6.84-73.26-24.47-10.84-9.89-19.61-21.86-25.77-35.17-.57-1.23-2.33-1.53-3.42-.9-1.26.74-1.47,2.19-.9,3.42h0Z"/>
          </g>
        </g>
      </g>
    </g>
  </g>
</svg>