<?xml version="1.0" encoding="UTF-8"?>
<svg id="Layer_2" xmlns="http://www.w3.org/2000/svg" viewBox="0 0 120.91 122.31">
  <defs>
    <style>
      .cls-1 {
        fill: #ffcf4a;
      }

      .cls-2 {
        isolation: isolate;
      }

      .cls-3 {
        fill: #f469bc;
      }
    </style>
  </defs>
  <g id="Layer_1-2" data-name="Layer_1">
    <g>
      <g class="cls-2">
        <path class="cls-3" d="M21.94,89.64c-7.26,3.49-14.93,8.54-19.65,11.71.95-7.26,6.38-17.49,11.94-25.7-2.38-.2-4.74-.53-7.08-.98-1.7-.33-3.47-.76-4.8-1.86-3.82-3.17-2.01-9.18-1.15-14.07,1.38-7.78-.38-16.63,4.34-22.97,6.64-8.92,20.73-6.2,30.47-.84,2.92,1.61,7.02,3.2,9.16.63,1.26-1.52,1.03-3.72,1.03-5.69.02-11.87,10.8-20.82,21.45-26.05,4.98-2.44,10.49-4.53,15.96-3.6,8.16,1.38,14.03,9.52,14.71,17.77.68,8.25-2.92,16.35-7.87,22.99,10.17-3.52,22.17,2.23,27.26,11.72,5.09,9.48,3.83,21.58-1.65,30.84-1.52,2.58-3.46,5.07-6.17,6.35-2.64,1.24-5.69,1.18-8.61.99-9.75-.65-19.41-2.54-28.68-5.6.31,6.95.61,14.05-1.29,20.75-1.9,6.7-6.4,13.05-12.98,15.32-3.51,1.21-7.36,1.18-11.01.49-14.66-2.77-25.26-17.56-25.38-32.19Z"/>
      </g>
      <path class="cls-1" d="M46,53.27c2.41-2.53,5.73-4.17,9.21-4.55,1.62-.17,3.25-.08,4.87.08,3.14.31,6.35.91,8.99,2.63s4.61,4.79,4.23,7.92c-.31,2.62-2.17,4.82-4.31,6.35-2.14,1.53-4.61,2.55-6.9,3.86-3.67,2.1-7.34,5.1-11.54,4.63-3.93-.44-7-4.07-7.61-7.98-.62-3.9.83-7.9,3.07-11.15"/>
    </g>
  </g>
</svg>