<?xml version="1.0" encoding="UTF-8"?>
<svg id="Layer_1" xmlns="http://www.w3.org/2000/svg" viewBox="0 0 550.81 238.98">
  <path d="M6.81,124.34c0-7.85,1.28-15.01,3.83-21.48,2.55-6.48,6.18-12.07,10.89-16.78,4.71-4.71,10.3-8.34,16.77-10.89,6.48-2.55,13.63-3.82,21.49-3.82,7.32,0,13.8.75,19.42,2.26,5.62,1.51,10.33,3.44,14.13,5.79,3.79,2.35,6.67,4.9,8.64,7.65,1.96,2.75,2.94,5.37,2.94,7.85,0,1.7-.39,3.34-1.18,4.9-.78,1.57-1.76,2.91-2.94,4.02-1.17,1.11-2.52,2-4.02,2.65-1.51.65-3.04.98-4.62.98-2.75,0-5.03-.91-6.86-2.75-1.18-1.18-2.49-2.35-3.93-3.53-1.44-1.18-3.14-2.22-5.1-3.14-1.96-.92-4.29-1.67-6.97-2.26-2.68-.59-5.85-.88-9.51-.88-8.9,0-15.7,2.19-20.41,6.57-4.71,4.38-7.06,12-7.06,22.86s2.35,18.48,7.06,22.86c4.71,4.38,11.51,6.57,20.41,6.57,3.66,0,6.83-.29,9.51-.88,2.68-.59,5.01-1.34,6.97-2.26,1.96-.92,3.66-1.96,5.1-3.14s2.75-2.35,3.93-3.53c1.83-1.83,4.11-2.75,6.86-2.75,1.57,0,3.11.33,4.62.98,1.5.65,2.85,1.54,4.02,2.65,1.18,1.11,2.16,2.42,2.94,3.92.79,1.51,1.18,3.18,1.18,5,0,2.49-.99,5.1-2.94,7.85-1.96,2.75-4.84,5.3-8.64,7.65-3.79,2.35-8.5,4.28-14.13,5.78-5.62,1.5-12.1,2.26-19.42,2.26-7.85,0-15.01-1.27-21.49-3.82-6.47-2.55-12.06-6.18-16.77-10.89-4.71-4.71-8.34-10.3-10.89-16.77-2.55-6.48-3.83-13.64-3.83-21.48Z" fill="#fff"/>
  <path d="M115.86,114.53c0-14.78,1.18-28.38,3.54-40.81,2.35-12.43,5.91-23.18,10.69-32.27,4.77-9.09,10.79-16.19,18.05-21.29,7.26-5.1,15.8-7.65,25.61-7.65,7.06,0,13.14,1.35,18.24,4.02,5.11,2.68,9.29,6.08,12.56,10.2,3.26,4.12,5.66,8.73,7.16,13.83,1.5,5.1,2.26,10.14,2.26,15.11s-.56,8.63-1.67,11.38c-1.11,2.75-2.35,4.88-3.72,6.38-1.38,1.51-2.62,2.72-3.73,3.63-1.11.92-1.67,1.96-1.67,3.14s.99,2.33,2.94,3.43c1.96,1.11,4.09,3.04,6.38,5.79,2.28,2.75,4.41,6.81,6.37,12.16,1.96,5.37,2.94,12.95,2.94,22.76,0,7.85-1.27,15.01-3.82,21.48-2.55,6.47-6.18,12.07-10.89,16.77-4.71,4.71-10.3,8.34-16.78,10.89-6.48,2.55-13.63,3.82-21.48,3.82-17.66,0-30.9-5.56-39.74-16.68-8.82-11.12-13.24-26.49-13.24-46.11ZM141.37,124.34c0,10.86,2.35,18.48,7.06,22.86,4.71,4.38,11.51,6.57,20.41,6.57s15.69-2.19,20.4-6.57c4.71-4.38,7.06-12,7.06-22.86s-2.35-18.48-7.06-22.86c-4.71-4.38-11.51-6.57-20.4-6.57s-15.7,2.19-20.41,6.57c-4.71,4.38-7.06,12-7.06,22.86ZM147.26,75.29c6.01,0,11.7-.16,17.07-.49,5.36-.32,10.04-1.11,14.02-2.35,3.99-1.24,7.17-3.17,9.52-5.79,2.35-2.62,3.53-6.28,3.53-10.99,0-2.48-.27-4.9-.78-7.26-.52-2.35-1.47-4.45-2.85-6.28-1.37-1.83-3.21-3.3-5.49-4.41-2.29-1.11-5.14-1.67-8.53-1.67-5.5,0-10.04,1.35-13.64,4.02-3.6,2.68-6.54,5.92-8.82,9.71-2.29,3.79-4.02,7.69-5.2,11.67-1.17,3.99-1.96,7.29-2.35,9.91-.27,1.18-.03,2.13.69,2.84.72.72,1.67,1.08,2.85,1.08Z" fill="#fff"/>
  <path d="M232.76,114.53c0-6.14,1.11-11.83,3.34-17.07,2.22-5.23,5.3-9.78,9.22-13.63,3.92-3.86,8.57-6.9,13.93-9.13,5.36-2.22,11.25-3.34,17.65-3.34,3.01,0,5.79.2,8.34.59,2.55.39,5.23.85,8.04,1.37,2.82.52,5.89.98,9.22,1.37,3.34.39,7.23.59,11.68.59,1.83,0,3.36-.06,4.61-.2,1.24-.13,2.65-.26,4.22-.39,2.35-.26,4.25.33,5.69,1.77,1.44,1.44,2.09,3.34,1.96,5.69-.13,3.66-.3,7.13-.49,10.4-.2,3.27-.39,6.57-.59,9.91-.2,3.34-.36,6.77-.49,10.3-.13,3.53-.2,7.39-.2,11.58,0,4.84.1,9.19.3,13.05.2,3.86.42,7.49.68,10.89.27,3.4.49,6.7.69,9.91.2,3.21.3,6.64.3,10.3,0,1.18-.49,2.23-1.47,3.14-.99.92-2.16,1.63-3.54,2.15-1.37.52-2.88.92-4.51,1.18-1.63.26-3.03.4-4.22.4s-2.58-.13-4.22-.4c-1.64-.26-3.14-.65-4.51-1.18-1.38-.52-2.55-1.24-3.54-2.15-.98-.92-1.47-1.96-1.47-3.14,0-2.62.06-4.87.2-6.77.13-1.89.27-3.56.39-5,.27-2.62-.92-3.79-3.53-3.53-.92.13-1.86.2-2.85.2s-1.99.07-3.03.2c-1.18,0-2.39.27-3.64.79-1.24.52-2.32,1.18-3.23,1.96l-16.68,14.52c-1.96,1.7-4.26,2.55-6.87,2.55h-23.54c-2.35,0-3.76-.49-4.22-1.47-.46-.98.23-2.26,2.06-3.82,2.35-2.23,4.97-4.58,7.85-7.06,2.88-2.48,5.23-4.64,7.06-6.48,1.57-1.57,1.31-2.87-.78-3.92-1.84-1.04-3.9-2.55-6.18-4.51-2.29-1.96-4.45-4.45-6.48-7.45-2.03-3.01-3.73-6.51-5.1-10.5-1.38-3.99-2.07-8.53-2.07-13.64ZM281.81,134.15c4.44,0,8.17-.52,11.19-1.57,3-1.05,5.43-2.45,7.26-4.22,1.83-1.76,3.14-3.82,3.93-6.18.78-2.35,1.17-4.9,1.17-7.65s-.39-5.3-1.17-7.65c-.79-2.35-2.1-4.42-3.93-6.18-1.83-1.77-4.26-3.17-7.26-4.22-3.01-1.04-6.74-1.57-11.19-1.57s-8.17.52-11.19,1.57c-3,1.05-5.43,2.45-7.26,4.22-1.83,1.76-3.14,3.82-3.92,6.18-.79,2.35-1.18,4.9-1.18,7.65s.39,5.3,1.18,7.65c.78,2.35,2.09,4.42,3.92,6.18,1.83,1.77,4.26,3.17,7.26,4.22,3.01,1.05,6.73,1.57,11.19,1.57Z" fill="#fff"/>
  <path d="M465.52,73.33c1.17,0,2.51.13,4.02.39,1.5.26,2.91.66,4.22,1.18,1.31.52,2.39,1.25,3.24,2.16.85.92,1.27,1.96,1.27,3.14,0,1.05-.03,2.39-.09,4.02-.07,1.63-.17,3.24-.3,4.81-.13,2.23.23,3.6,1.08,4.12.84.52,2.58.52,5.2,0,1.7-.65,3.75-1.18,6.18-1.57,2.42-.39,5.26-.59,8.53-.59,7.32,0,13.8,1.11,19.42,3.33,5.62,2.23,10.33,5.27,14.13,9.12,3.79,3.86,6.67,8.4,8.64,13.64,1.96,5.23,2.94,10.92,2.94,17.07s-.99,11.84-2.94,17.07c-1.96,5.23-4.84,9.78-8.64,13.64-3.79,3.86-8.5,6.9-14.13,9.12-5.62,2.23-12.1,3.34-19.42,3.34s-13.81-1.11-19.42-3.34c-5.63-2.22-10.34-5.26-14.13-9.12-3.8-3.86-6.67-8.4-8.64-13.64-1.96-5.23-2.94-10.92-2.94-17.07s-.07-12.19-.2-18.15c-.13-5.95-.23-11.38-.3-16.29-.07-4.9-.16-9.09-.3-12.56-.13-3.46-.2-5.79-.2-6.97s.42-2.22,1.27-3.14c.85-.92,1.93-1.64,3.24-2.16,1.31-.52,2.71-.92,4.22-1.18,1.51-.26,2.85-.39,4.03-.39ZM477.29,134.15c0,7.45,1.73,12.92,5.19,16.38,3.47,3.47,8.93,5.2,16.39,5.2,14.38,0,21.58-7.19,21.58-21.58,0-6.41-1.74-11.61-5.2-15.6-3.47-3.99-8.92-5.98-16.38-5.98s-12.92,1.99-16.39,5.98c-3.47,3.99-5.19,9.19-5.19,15.6Z" fill="#fff"/>
  <path d="M392.24,226.47c-16.47,0-32.65-6.01-42.51-14.55-9.92-8.59-13.85-19.68-10.78-30.41,2.48-8.69,7.64-12.46,11.53-14.09,12.17-5.11,26.9,2.91,47.29,14,7.4,4.03,15.3,8.33,23.47,12.17,3.86-6.02,5.88-13.9,6.02-23.6.09-6.54-1.12-11.89-3.08-16.27-1.61-3.6-5.98-4.8-9.43-2.89-7.65,4.25-16.38,6.24-24.64,5.9-13.95-.6-23.67-8.23-24.18-19-.35-7.43,3.22-14,9.8-18.04,10.3-6.32,26.67-5.77,40.85,1.12.31-1.09.55-2.26.72-3.5.38-2.85,1.11-12.71-5.43-20.03-4.95-5.54-13.04-8.2-23.95-8.03-23.18.46-25.44,20.19-25.66,24.14-.33,5.99-6.2,10.44-12.38,8.48-4.16-1.32-6.68-5.41-6.45-9.76.77-14.41,10.89-41.08,44.12-41.73,20.76-.49,32.35,7.56,38.4,14.33,8.03,9,11.79,22.12,10.06,35.1-.29,2.17-.72,4.24-1.29,6.22-1.14,4.01-.4,8.37,1.98,11.79,6.3,9.04,9.61,20.17,9.44,32.43-.19,13.01-3.12,22.95-7.28,30.52,16.16,5.42,32.7,7.28,48.02.44,4.41-1.97,9.85-.62,12.34,3.53,2.96,4.92.92,11.17-4.15,13.48-23.34,10.64-47.48,6.37-69.36-2.18-3.33,2.51-6.59,4.29-9.37,5.54-7.6,3.4-15.87,4.89-24.07,4.89ZM357.81,184.81s-.34.56-.72,1.88c-1.01,3.53.67,7.22,4.99,10.97,7.96,6.9,22.72,11.32,36.09,9.57,1.93-.25,2.34-2.89.62-3.8-3.48-1.84-6.84-3.67-10.07-5.43-10.67-5.8-26.76-14.54-30.92-13.19ZM384.83,136.42c1.64,1.12,7.59,2.54,15.23.22.85-.26,1.79-.58,2.79-1-7.5-2.26-14.32-1.67-17.26.13-.46.29-.67.47-.76.64Z" fill="#fff"/>
</svg>